<?xml version="1.0" encoding="UTF-8"?>
<svg id="Layer_1" xmlns="http://www.w3.org/2000/svg" version="1.1" viewBox="0 0 50 50">
  <defs>
    <style>
      .st0 {
        fill: #fff;
      }

      .st1 {
        fill: none;
        stroke: #fff;
        stroke-miterlimit: 10;
        stroke-width: 3px;
      }
    </style>
  </defs>
  <rect class="st1" x="3.4" y="3.3" width="42" height="42" rx="5" ry="5"/>
  <ellipse class="st1" cx="13.5" cy="13.8" rx="1.5" ry="1"/>
  <rect class="st0" x="10.4" y="19.3" width="6" height="19.1"/>
  <path class="st0" d="M38.5,38.3h-6s0-10,0-10c0,0,0-4-3.3-4s-3.7,2.8-3.7,4.3,0,9.8,0,9.8h-6v-19.1h6.1s0,2.6,0,2.6c0,0,1.6-2.5,5.6-2.5s5.5,2.2,6,2.8,1.2,1.8,1.4,4.7c0,2.9,0,11.4,0,11.4Z"/>
</svg>