<?xml version="1.0" encoding="utf-8"?>
<!-- Generator: Adobe Illustrator 19.2.1, SVG Export Plug-In . SVG Version: 6.00 Build 0)  -->
<svg version="1.1" id="layer" xmlns="http://www.w3.org/2000/svg" xmlns:xlink="http://www.w3.org/1999/xlink" x="0px" y="0px"
	 viewBox="0 0 652 652" style="enable-background:new 0 0 652 652;" xml:space="preserve">
<style type="text/css">
	.st0{fill:#240C4B;}
	.st1{fill:#B9005C;}
</style>
<g>
	<path class="st0" d="M307.5,361c-0.5,0-0.9-0.4-0.9-0.9c0-0.3,0.1-0.6,0.3-0.7l18.6-13.8l-49,0c-0.5,0-0.9-0.4-0.9-0.9
		c0-0.3,0.2-0.6,0.4-0.8l25.6-18.9c0.2-0.2,0.4-0.3,0.7-0.3h19.9c4.5,0.2,6.8,0.6,8.2,1.5c1.7,1.1,2.2,2.4,2.5,3.2
		c2.2,6.1,5.1,25.5,5.2,26.4c0.1-0.9,3-20.3,5.2-26.4c0.3-0.8,0.8-2.1,2.5-3.2c1.4-0.9,3.7-1.4,8.2-1.5h48.7c0.5,0,0.9,0.4,0.9,0.9
		c0,0.3-0.2,0.6-0.4,0.8l-46.4,34.3c-0.2,0.1-0.4,0.2-0.6,0.2H307.5z"/>
	<path class="st1" d="M399.5,297.2c0.5,0,0.9,0.4,0.9,0.9c0,0.3-0.2,0.6-0.4,0.8l-25.8,19c-0.2,0.1-0.3,0.2-0.5,0.2h-19.9
		c-4.5-0.2-6.8-0.6-8.2-1.5c-1.7-1.1-2.2-2.4-2.5-3.2c-2.2-6.1-5.1-25.5-5.2-26.4c-0.1,0.9-3,20.3-5.2,26.4
		c-0.3,0.8-0.8,2.1-2.5,3.2c-1.4,0.9-3.7,1.4-8.2,1.5l-48.7,0c-0.5,0-0.9-0.4-0.9-0.9c0-0.3,0.1-0.5,0.3-0.7l1.5-1.1l45-33.3
		c0.2-0.1,0.4-0.2,0.6-0.2h48.7c0.5,0,0.9,0.4,0.9,0.9c0,0.3-0.1,0.6-0.4,0.7l-18.6,13.7L399.5,297.2z"/>
	<path class="st1" d="M473.1,301.9c0-1.2,1-2.2,2.2-2.2H500c1.2,0,2.2,1,2.2,2.2v4.4c0,1.2-1,2.2-2.2,2.2h-18.2v8.8l15.3,0
		c1.2,0,2.2,1,2.2,2.2v4.3c0,1.2-1,2.2-2.2,2.2l-15.3,0v8.7H500c1.2,0,2.2,1,2.2,2.2v4.4c0,1.2-1,2.2-2.2,2.2l-24.7,0
		c-1.2,0-2.2-1-2.2-2.2V301.9z"/>
	<path class="st1" d="M591.9,301.9c0-1.2,1-2.2,2.2-2.2h24.7c1.2,0,2.2,1,2.2,2.2v4.4c0,1.2-1,2.2-2.2,2.2h-18.2v8.8l15.3,0
		c1.2,0,2.2,1,2.2,2.2v4.3c0,1.2-1,2.2-2.2,2.2l-15.3,0v8.7h18.2c1.2,0,2.2,1,2.2,2.2v4.4c0,1.2-1,2.2-2.2,2.2l-24.7,0
		c-1.2,0-2.2-1-2.2-2.2V301.9z"/>
	<path class="st1" d="M457.7,324.9l0-23c0-1.2,1-2.2,2.2-2.2h4.4c1.2,0,2.2,1,2.2,2.2v39.2c0,1.2-1,2.2-2.2,2.2l-1.5,0
		c-0.6,0-1.2-0.3-1.6-0.8l-23.4-27.8l0,26.4c0,1.2-1,2.2-2.2,2.2h-4.4c-1.2,0-2.2-1-2.2-2.2v-39.2c0-1.2,1-2.2,2.2-2.2l4.4,0
		c0.6,0,1.2,0.3,1.6,0.8L457.7,324.9z"/>
	<path class="st1" d="M549.3,341.3c0,1.2,1,2.2,2.2,2.2l7.4,0h24.1c1.2,0,2.2-1,2.2-2.2v-4.4c0-1.2-1-2.2-2.2-2.2l-21.1,0l22.8-27.2
		c0.3-0.4,0.5-0.8,0.5-1.3v0l0-4.3c0-1.2-1-2.2-2.2-2.2l-31.5,0c-1.2,0-2.2,1-2.2,2.2v4.4c0,1.2,1,2.2,2.2,2.2l21.1,0l-13.8,16.4
		l-2.5,2.9l-6.6,7.8c-0.3,0.4-0.5,0.8-0.5,1.4L549.3,341.3z"/>
	<path class="st1" d="M522,308.4l-10.9,0c-1.2,0-2.2-1-2.2-2.2v-4.4c0-1.2,1-2.2,2.2-2.2h30.5c1.2,0,2.2,1,2.2,2.2v4.4
		c0,1.2-1,2.2-2.2,2.2l-10.9,0l0,32.7c0,1.2-1,2.2-2.2,2.2h-4.4c-1.2,0-2.2-1-2.2-2.2L522,308.4z"/>
	<path class="st1" d="M99.5,301.9c0-1.2,1-2.2,2.2-2.2h24.7c1.2,0,2.2,1,2.2,2.2v4.4c0,1.2-1,2.2-2.2,2.2h-18.2v8.8l15.3,0
		c1.2,0,2.2,1,2.2,2.2v4.3c0,1.2-1,2.2-2.2,2.2h-15.3v8.7h18.2c1.2,0,2.2,1,2.2,2.2v4.4c0,1.2-1,2.2-2.2,2.2l-24.7,0
		c-1.2,0-2.2-1-2.2-2.2V301.9z"/>
	<path class="st1" d="M179.4,301.9c0-1.2,1-2.2,2.2-2.2h24.7c1.2,0,2.2,1,2.2,2.2v4.4c0,1.2-1,2.2-2.2,2.2h-18.2v8.8l15.3,0
		c1.2,0,2.2,1,2.2,2.2v4.3c0,1.2-1,2.2-2.2,2.2h-15.3v8.7h18.2c1.2,0,2.2,1,2.2,2.2v4.4c0,1.2-1,2.2-2.2,2.2l-24.7,0
		c-1.2,0-2.2-1-2.2-2.2V301.9z"/>
	<path class="st1" d="M89.9,299.7c1.2,0,2.2,1,2.2,2.2v39.2c0,1.2-1,2.2-2.2,2.2h-4.4c-1.2,0-2.2-1-2.2-2.2v-39.2
		c0-1.2,1-2.2,2.2-2.2H89.9z"/>
	<path class="st1" d="M163.9,324.9l0-23c0-1.2,1-2.2,2.2-2.2h4.4c1.2,0,2.2,1,2.2,2.2v39.2c0,1.2-1,2.2-2.2,2.2l-1.5,0
		c-0.6,0-1.2-0.3-1.6-0.8L144,314.7l0,26.4c0,1.2-1,2.2-2.2,2.2h-4.4c-1.2,0-2.2-1-2.2-2.2v-39.2c0-1.2,1-2.2,2.2-2.2l4.4,0
		c0.6,0,1.2,0.3,1.6,0.8L163.9,324.9z"/>
</g>
<g>
	<path class="st1" d="M223.8,325.9l14,16.7c0.4,0.5,1,0.8,1.7,0.8h5.7c1.2,0,2.2-1,2.2-2.2c0-0.5-0.2-1-0.5-1.4l-11.7-13.9
		c7.7-1,11.8-6.7,11.8-13c0-7.2-5.8-13.1-13.1-13.1h-16.6c-1.2,0-2.2,1-2.2,2.2v39.2c0,1.2,1,2.2,2.2,2.2h4.4c1.2,0,2.2-1,2.2-2.2
		L223.8,325.9z M223.8,317.2v-8.7h10.1c2.4,0,4.4,2,4.4,4.4c0,2.4-1.9,4.4-4.4,4.4H223.8z"/>
	<path class="st1" d="M21.2,303.3c-0.3-0.8-0.3-1.7,0.2-2.4c0.5-0.7,1.3-1.1,2.1-1.1h4.3c1,0,1.9,0.6,2.3,1.5l8.4,24l7.2-15.7
		l1.4-2.9c0.4-0.9,1.3-1.5,2.3-1.5c1,0,1.9,0.6,2.3,1.5l1.3,2.5l7.3,16.1l8.3-23.9c0.4-0.9,1.3-1.5,2.3-1.5h4.3
		c0.8,0,1.6,0.4,2.1,1.1c0.5,0.7,0.5,1.6,0.2,2.4l-14.9,38.6c-0.4,0.9-1.3,1.5-2.3,1.5c-1,0-1.9-0.6-2.3-1.5l-7.1-15.6l-1.5-3.3
		l-2.2,4.7l-6.5,14.3c-0.4,0.9-1.3,1.5-2.3,1.5c-1,0-1.9-0.6-2.3-1.5L21.2,303.3z"/>
</g>
</svg>
